<?xml version="1.0" encoding="UTF-8"?>
<svg id="Layer_1" xmlns="http://www.w3.org/2000/svg" version="1.1" viewBox="0 0 74 92.5">
  <!-- Generator: Adobe Illustrator 29.0.1, SVG Export Plug-In . SVG Version: 2.1.0 Build 192)  -->
  <defs>
    <style>
      .st0 {
        fill: #fff;
      }

      .st1 {
        fill: #738262;
      }
    </style>
  </defs>
  <path class="st0" d="M68.9,9.5c0-.7-.4-1.4-1.1-1.7-.6-.3-1.4-.3-2,0-4.9,3.6-7.8,9.3-7.8,15.4v10.1c-4-7.6-11.8-12.5-20.6-12.5s-17.2,5.3-21,13.3v-8.5c-.1-.6.3-1.1.9-1.2,1.1-.3,2-.9,2.9-1.8,1.5-1.6,1.8-3.8,1.8-5.3v-8.4c0-1.3-1.1-2.4-2.4-2.4s-2.4,1.1-2.4,2.4v9.3s-.1,0-.1.2h-1.2v-8c0-1.3-1.1-2.4-2.4-2.4s-2.4,1.1-2.4,2.4v8h-1.3v-9.4c0-1.3-1.1-2.4-2.4-2.4s-2.4,1.1-2.4,2.4v8.4c0,2.2.6,4,1.8,5.3.8.8,1.8,1.5,2.8,1.8.6.2,1,.7,1,1.3l-.4,38.1c0,1.4.8,2.6,2,3,.4.2.9.3,1.3.3.7,0,1.3-.2,1.9-.6.9-.6,1.4-1.7,1.4-2.8v-9c3.8,7.8,11.7,12.8,20.7,12.8s22.5-9.5,23.2-21.9h.9v17.5c0,2,1.7,3.7,3.7,3.7s1.9-.4,2.6-1.1,1.1-1.7,1-2.6V9.5Z"/>
  <path class="st1" d="M69,9.5c0-.7-.4-1.4-1.1-1.7-.6-.3-1.4-.3-2,0-4.9,3.6-7.8,9.3-7.8,15.4v10.1c-4-7.6-11.8-12.5-20.6-12.5s-17.2,5.3-21,13.3v-8.5c-.1-.6.3-1.1.9-1.2,1.1-.3,2-.9,2.9-1.8,1.5-1.6,1.8-3.8,1.8-5.3v-8.4c0-1.3-1.1-2.4-2.4-2.4s-2.4,1.1-2.4,2.4v9.3s-.1,0-.1.2h-1.2v-8c0-1.3-1.1-2.4-2.4-2.4s-2.4,1.1-2.4,2.4v8h-1.3v-9.4c0-1.3-1.1-2.4-2.4-2.4s-2.4,1.1-2.4,2.4v8.4c0,2.2.6,4,1.8,5.3.8.8,1.8,1.5,2.8,1.8.6.2,1,.7,1,1.3l-.4,38.1c0,1.4.8,2.6,2,3,.4.2.9.3,1.3.3.7,0,1.3-.2,1.9-.6.9-.6,1.4-1.7,1.4-2.8v-9c3.8,7.8,11.7,12.8,20.7,12.8s22.5-9.5,23.2-21.9h.9v17.5c0,2,1.7,3.7,3.7,3.7s1.9-.4,2.6-1.1,1.1-1.7,1-2.6V9.5ZM67.5,13.6v30.5h-4.1v-19.3c0-4.1,1.5-8.1,4.1-11.2ZM14.6,65.2c-.5.4-1.2.4-1.8.2-.6-.2-1-.9-1-1.7l.4-38c0-1.3-.8-2.4-2.1-2.7-.8-.2-1.6-.7-2.2-1.4-1.2-1.3-1.4-3-1.4-4.2v-8.4c0-.5.4-.9.9-.9h0c.5,0,.9.4.9.9v9.3c0,.4.1.9.4,1.2.3.3.7.5,1.2.5h1.1c.9,0,1.6-.7,1.6-1.6v-8c0-.5.4-.9.9-.9s.9.4.9.9v8c0,.9.7,1.6,1.6,1.6h1.1c.4,0,.9-.2,1.2-.5s.5-.8.5-1.2v-9.3c0-.5.4-.9.9-.9s.9.4.9.9v8.4c0,1.2-.2,3-1.4,4.2-.6.7-1.3,1.1-2.2,1.4-1.2.4-2.1,1.5-2.1,2.7l.4,38c0,.6-.3,1.1-.8,1.5h.1ZM37.5,66c-9.6,0-17.9-6.1-20.8-15.2h0v-12.4c-.1,0,0,0,0,0,2.6-9.3,11.2-15.8,20.9-15.8s17.6,5.9,20.6,14.8v6.5c0,.8.5,1.4,1.1,1.7-.7,11.6-10.1,20.5-21.7,20.5h0ZM67.5,63c0,.6-.2,1.1-.6,1.6s-1,.7-1.6.7c-1.2,0-2.2-1-2.2-2.2v-17.4h4.4v17.4h0Z"/>
  <path class="st1" d="M37.5,27.4c-9.3,0-16.9,7.6-16.9,16.8s7.6,16.8,16.9,16.8,16.9-7.5,16.9-16.8-7.6-16.8-16.9-16.8ZM37.5,55.4c-2,0-4-.5-5.7-1.6l3.1-3.1c.5.5,1.2.8,1.9.9v.8c0,.4.3.8.8.8s.8-.3.8-.8v-.8c1.9-.4,3.4-2,3.4-4.1s-.3-1.9-1-2.6l6.5-6.5c1,1.7,1.6,3.7,1.6,5.7,0,6.2-5.1,11.2-11.3,11.2h0ZM37.5,33c2,0,4,.5,5.7,1.6l-3.1,3.1c-.5-.5-1.2-.8-1.9-.9v-.9c0-.4-.3-.8-.8-.8s-.8.3-.8.8v.8c-1.9.3-3.4,2-3.4,4.1s.3,1.9,1,2.6l-6.5,6.5c-1-1.7-1.6-3.7-1.6-5.7,0-6.2,5-11.2,11.2-11.2h.2ZM40.2,47.6c0,1.5-1.2,2.7-2.7,2.7s-1.1-.2-1.6-.5l3.7-3.7c.3.5.5,1,.5,1.6h0ZM34.9,40.8c0-1.5,1.2-2.7,2.7-2.7s1.1.2,1.6.5l-3.7,3.7c-.3-.4-.5-1-.5-1.6h0Z"/>
</svg>