<?xml version="1.0" encoding="UTF-8"?>
<svg id="Layer_1" xmlns="http://www.w3.org/2000/svg" version="1.1" viewBox="0 0 123 153.8">
  <!-- Generator: Adobe Illustrator 29.0.1, SVG Export Plug-In . SVG Version: 2.1.0 Build 192)  -->
  <defs>
    <style>
      .st0 {
        fill: none;
        stroke: #56949a;
        stroke-miterlimit: 10;
      }

      .st1 {
        fill: #56949a;
        fill-rule: evenodd;
      }
    </style>
  </defs>
  <path class="st1" d="M37.9,120.6c-3.7,2-21.2,25.1-26.2,23.3s6.4-5.2,6.9-5.7c1.3-1.4,8.1-9.1,8.1-9.1.2,0-2.2,2-7.7,7.5s-6.9,6.7-6.7,6.6c7.2-6.8,36.3-47.2,38.1-50.2-8.8-4.7-27.6-4.5-32.2-10.5,6.8,0,15.5,2.2,20-.3-5.2-1-9.2-2.7-13.9-5.3,8.3-1.1,19.1-.9,29.5-5.4-6.9,1.1-17.4,1.2-22.4-.9,4.7-.7,11.1-.9,15.2-3.4-1.9-.2-5.1-.4-7.7-1.3,5.4-1,10-2.2,14.3-3.5-2.3-.8-4.6-1.9-7-3.2,6-.5,19.7-.5,26.6-4.9-3.7.8-16.5,1.2-19.9-1,4.5-.6,10.5-.8,14.4-3.3-1.8-.3-4.9-.4-7.3-1.3,8.6-1.5,18.8-3.2,25.7-9-6.3,2.3-4.7,2.3-12.3,2.4,4.7-2.6,29.8-21.4,40.9-38.5-9.9,17.8-17.2,44.4-17.4,51.2-3.3-6.6-2.5-7.1-3.3-13.5-2.2,8.5,1.3,21.2,3.7,29.3-1.9-1.8-3.5-4.3-4.5-5.7-.5,4.5,2,9.7,3.5,13.8-3.6-1.9-8.8-11.3-9.7-14.9-.8,7.9,5,17.9,7.3,23.3-2.3-1.5-4.3-2.9-6.2-4.5.7,4.2,1.7,8.7,3.2,13.8-2-1.9-3.6-4.5-4.8-6.1-.5,4.8,2.2,10.3,3.7,14.6-4.2-3.3-8.6-18.1-10.7-24.5.6,11,5.4,25.8,8.1,33.5-4.4-2.8-10.2-11-13.6-15-.4,4.9,2.2,20.5,5.3,26.4-7.7-1.3-16.6-19.9-22.1-28.2"/>
  <path class="st0" d="M15.4,141.9c11-1.8,19.9-1.9,25.7-1.6,16.6.7,24.2,4.4,40.2,4.1,9-.2,16.2-1.5,20.6-2.5"/>
</svg>