<?xml version="1.0" encoding="UTF-8"?>
<svg id="_图层_1" xmlns="http://www.w3.org/2000/svg" version="1.1" viewBox="0 0 459.7 460">
  <!-- Generator: Adobe Illustrator 29.1.0, SVG Export Plug-In . SVG Version: 2.1.0 Build 142)  -->
  <defs>
    <style>
      .st0 {
        fill: #fff;
        stroke: #fff;
        stroke-miterlimit: 10;
        stroke-width: 10px;
      }
    </style>
  </defs>
  <path d="M229.9,0C102.7,0-.1,102.9-.1,230s102.9,230,230,230,230-102.9,230-230S357,0,229.9,0Z"/>
  <g>
    <path class="st0" d="M361.3,171.2c0,19.7-9.8,38-26.3,49-7,4.7-7,14.9,0,19.6,16.5,10.9,26.3,29.3,26.3,49v58.8h-23.5v-58.8c0-19.4-15.8-35.3-35.3-35.3s-35.3,15.8-35.3,35.3v58.8h-23.5v-58.8c0-19.7,9.8-38,26.3-49,7-4.7,7-14.9,0-19.6-16.5-10.9-26.3-29.3-26.3-49v-58.8h23.5v58.8c0,19.4,15.8,35.3,35.3,35.3s35.3-15.8,35.3-35.3v-58.8h23.5v58.8h0Z"/>
    <path class="st0" d="M215.9,159.4c0,24.9-15.8,47.1-39.2,55.4-4.7,1.7-7.8,6.1-7.8,11.1v121.6h-23.5v-121.6c0-5-3.1-9.4-7.8-11.1-23.4-8.3-39.2-30.6-39.2-55.4v-47h23.5v47c0,19.4,15.8,35.3,35.3,35.3s35.3-15.8,35.3-35.3v-47h23.5v47h-.1Z"/>
  </g>
</svg>