<?xml version="1.0" encoding="UTF-8"?>
<svg id="Group" xmlns="http://www.w3.org/2000/svg" version="1.1" viewBox="0 0 65 81.3">
  <!-- Generator: Adobe Illustrator 29.1.0, SVG Export Plug-In . SVG Version: 2.1.0 Build 142)  -->
  <path id="Lines" d="M32.5,39.6c5.2,0,10.3-2.1,14-5.8,3.7-3.7,5.8-8.7,5.8-14s-2.1-10.3-5.8-14c-3.7-3.7-8.7-5.8-14-5.8s-10.3,2.1-14,5.8c-3.7,3.7-5.8,8.7-5.8,14s2.1,10.3,5.8,14,8.7,5.8,14,5.8ZM32.5,6.2c5.5,0,10.4,3.3,12.5,8.4,2.1,5.1.9,10.9-2.9,14.8-3.9,3.9-9.7,5-14.8,2.9-5.1-2.1-8.4-7-8.4-12.5,0-7.5,6.1-13.5,13.5-13.5h0ZM35.4,41.7h-5.8c-7.9,0-15.4,3.1-20.9,8.7C3.1,55.9,0,63.4,0,71.3c0,3.1,2.1,5.8,5.2,6.6,8.9,2.2,18.1,3.4,27.3,3.4,9.2,0,18.4-1.1,27.3-3.4,3-.7,5.2-3.5,5.2-6.6,0-7.9-3.1-15.4-8.7-20.9-5.6-5.6-13.1-8.7-20.9-8.7h0ZM58.3,71.8h0c-17,4.2-34.7,4.2-51.7,0-.2,0-.4-.3-.4-.5,0-6.2,2.5-12.1,6.9-16.5,4.4-4.4,10.3-6.8,16.5-6.9h5.8c6.2,0,12.1,2.5,16.5,6.9,4.4,4.4,6.8,10.3,6.9,16.5,0,.2-.2.5-.4.5h0Z"/>
</svg>