<?xml version="1.0" encoding="UTF-8"?>
<svg id="icon" xmlns="http://www.w3.org/2000/svg" version="1.1" viewBox="0 0 41.6 79.4">
  <!-- Generator: Adobe Illustrator 29.1.0, SVG Export Plug-In . SVG Version: 2.1.0 Build 142)  -->
  <path id="arrow" d="M20.8.2c-2.6,0-4.7,2.1-4.7,4.7v58l-8-7.8c-.9-.9-2.1-1.4-3.4-1.4s-2.5.5-3.3,1.4C.5,56,0,57.2,0,58.5s.5,2.5,1.4,3.3l16,16c.9.9,2.1,1.4,3.3,1.4s2.5-.5,3.3-1.4l16.1-16c.9-.9,1.4-2.1,1.4-3.3s-.5-2.5-1.4-3.3c-.9-.9-2.1-1.4-3.4-1.4s-2.5.5-3.3,1.4l-8,8V4.9c0-2.6-2.1-4.7-4.7-4.7h.1Z"/>
</svg>